<?xml version="1.0" standalone="no"?>
<!DOCTYPE svg PUBLIC "-//W3C//DTD SVG 20010904//EN"
 "http://www.w3.org/TR/2001/REC-SVG-20010904/DTD/svg10.dtd">
<svg version="1.0" xmlns="http://www.w3.org/2000/svg"
 width="500.000000pt" height="500.000000pt" viewBox="0 0 500.000000 500.000000"
 preserveAspectRatio="xMidYMid meet">

<g transform="translate(0.000000,500.000000) scale(0.100000,-0.100000)"
fill="#000000" stroke="none">
<path d="M2226 4573 c-14 -21 -32 -61 -41 -90 -10 -29 -24 -55 -34 -57 -9 -3
-56 -10 -106 -16 -191 -23 -413 -102 -549 -195 l-39 -26 -41 39 c-79 75 -179
117 -257 110 -58 -6 -82 -25 -105 -84 -17 -45 -14 -70 18 -154 15 -42 16 -42
68 -100 22 -25 40 -51 40 -59 0 -8 -18 -42 -39 -75 -108 -166 -191 -448 -191
-647 0 -174 51 -378 142 -569 55 -113 219 -296 329 -365 21 -14 39 -28 39 -30
0 -7 -42 15 -116 60 -66 39 -284 239 -284 260 0 8 -25 35 -54 61 -101 86 -207
267 -265 449 -17 55 -46 124 -64 154 -18 29 -41 70 -53 90 -15 27 -28 37 -50
39 -52 5 -340 -110 -491 -196 l-83 -47 0 -211 0 -211 55 -105 c30 -58 75 -156
100 -219 26 -63 58 -137 71 -166 13 -28 24 -56 24 -60 0 -5 12 -25 26 -44 14
-19 39 -62 55 -96 26 -59 30 -63 61 -63 28 0 37 -7 60 -44 38 -60 62 -83 148
-145 89 -65 203 -121 245 -121 54 0 58 -10 35 -71 -27 -67 -37 -177 -21 -217
7 -16 25 -39 41 -51 34 -25 55 -61 64 -112 11 -60 54 -157 104 -233 57 -86
185 -214 255 -255 84 -49 80 -41 53 -102 -24 -54 -25 -56 -81 -68 -79 -18
-227 -94 -264 -136 -71 -81 -20 -168 139 -238 89 -40 297 -97 405 -112 61 -9
136 -20 167 -26 34 -6 288 -10 635 -10 615 -1 640 1 903 52 253 50 454 145
474 224 8 32 -8 96 -32 124 -9 12 -75 45 -147 74 l-130 53 -30 56 c-16 30 -36
62 -43 71 -11 13 -10 18 12 29 13 7 44 31 68 53 24 22 63 55 88 73 84 61 170
198 221 354 19 60 37 97 53 109 14 11 32 42 42 71 23 71 14 172 -32 349 l-36
140 29 25 c31 28 29 28 183 -5 52 -11 112 -21 132 -21 l37 0 3 82 c3 80 3 82
36 100 18 10 54 23 80 29 26 7 52 15 57 19 6 3 29 12 53 20 47 15 47 15 27 50
-19 33 -19 66 2 100 23 40 6 76 -69 142 -33 29 -75 67 -92 84 -17 17 -77 75
-133 128 -98 93 -103 96 -148 96 -31 0 -63 -9 -101 -30 -49 -26 -60 -28 -102
-21 -102 19 -235 -32 -279 -106 -14 -24 -31 -43 -39 -43 -23 0 -17 17 31 82
161 221 233 581 174 873 -33 167 -113 359 -199 479 l-34 46 26 28 c105 115
142 223 101 293 -18 30 -29 37 -82 50 -63 14 -208 -30 -261 -80 -9 -9 -28 -27
-43 -40 l-26 -24 -56 37 c-114 76 -327 151 -500 175 -155 22 -145 19 -145 52
0 43 -36 107 -73 129 -20 12 -50 20 -79 20 -44 0 -50 -3 -72 -37z m364 -188
c171 -30 357 -91 460 -151 30 -18 73 -43 94 -56 22 -13 75 -53 117 -90 l77
-67 65 52 c71 57 97 92 97 130 0 36 -43 67 -93 67 -34 0 -46 -7 -85 -45 -41
-42 -44 -48 -39 -85 l5 -40 -55 39 c-30 22 -54 42 -54 46 0 3 24 26 53 50 63
52 145 85 211 85 136 0 151 -127 32 -270 -20 -24 -43 -56 -50 -71 -14 -26 -13
-30 21 -70 47 -57 125 -213 158 -317 36 -113 56 -247 56 -367 -1 -240 -55
-434 -176 -622 -45 -70 -188 -218 -259 -269 -31 -21 -76 -54 -101 -72 -87 -63
-101 -56 -27 13 133 122 193 245 193 395 0 226 -116 393 -365 525 -79 42 -276
102 -395 120 -181 28 -424 13 -585 -36 -38 -11 -86 -25 -107 -30 -20 -5 -76
-27 -125 -50 -74 -35 -102 -56 -171 -126 -59 -60 -91 -103 -111 -146 -48 -106
-56 -138 -55 -237 0 -163 55 -291 179 -417 39 -40 66 -73 60 -73 -44 1 -213
116 -321 221 -129 124 -238 330 -290 549 -21 88 -29 296 -15 404 6 51 28 140
52 210 38 114 132 310 166 348 14 16 14 19 -4 35 -34 31 -89 106 -118 161 -54
103 -9 192 95 192 67 0 165 -45 221 -101 l43 -43 -39 -33 c-21 -18 -41 -33
-45 -33 -12 0 -43 79 -37 94 5 11 0 16 -13 16 -10 0 -25 9 -33 21 -11 14 -30
22 -68 26 -47 4 -57 2 -73 -16 -35 -38 -26 -85 24 -136 24 -24 59 -52 77 -60
34 -16 34 -17 18 -42 -16 -23 -15 -24 2 -15 10 6 27 20 37 31 11 12 25 21 33
21 7 0 28 16 45 36 31 35 114 93 218 151 134 76 377 148 545 163 131 11 348 4
455 -15z m27 -1115 c128 -30 227 -66 320 -118 79 -44 189 -132 164 -132 -7 0
-9 -5 -6 -10 4 -6 10 -8 15 -5 4 3 14 -3 21 -13 13 -15 12 -16 -3 -3 -25 19
-23 9 12 -52 17 -30 30 -61 30 -71 0 -9 3 -15 8 -13 12 8 14 -187 2 -234 -16
-62 -82 -156 -147 -208 -57 -46 -153 -110 -165 -111 -4 0 -45 -18 -90 -39 -86
-41 -210 -81 -313 -101 -64 -13 -396 -29 -389 -19 3 5 -79 18 -151 24 -5 0
-15 4 -21 7 -6 4 -30 11 -53 17 -37 8 -43 7 -52 -11 -12 -23 -27 -14 -32 19
-2 13 -7 26 -11 30 -5 5 -7 -4 -4 -18 5 -27 -4 -31 -29 -16 -7 4 -9 15 -6 25
6 15 5 16 -12 2 -15 -12 -17 -12 -10 -1 6 11 4 13 -8 8 -8 -3 -21 1 -27 8 -7
8 -16 13 -20 10 -13 -8 -134 128 -169 189 -18 31 -30 64 -27 72 3 8 2 13 -3 9
-12 -7 -41 121 -41 182 0 153 107 336 250 432 226 151 654 213 967 141z m542
-314 c9 -11 9 -16 0 -22 -7 -4 -9 -3 -5 4 3 6 -2 15 -11 21 -10 6 -13 11 -7
11 6 0 17 -6 23 -14z m847 -296 c35 -14 107 -73 218 -180 49 -47 97 -93 107
-102 24 -23 24 -31 -2 -54 -12 -10 -27 -31 -34 -45 -11 -20 -35 -33 -107 -59
-51 -18 -99 -35 -105 -38 -9 -3 -13 8 -13 36 0 38 1 40 43 51 48 13 69 27 85
58 19 36 14 79 -13 112 -29 33 -127 75 -162 68 -16 -3 -38 12 -86 58 -63 60
-64 62 -43 76 47 31 69 35 112 19z m-186 -52 c55 -21 120 -72 149 -116 44 -70
71 -179 70 -287 0 -49 -3 -85 -5 -79 -3 6 -24 31 -47 56 -23 24 -70 92 -105
151 -48 81 -79 121 -133 169 -38 35 -84 68 -102 74 l-32 11 25 13 c54 29 117
32 180 8z m-2886 -112 c73 -30 98 -115 58 -197 -44 -91 -205 -258 -334 -347
-45 -31 -130 -72 -148 -72 -15 0 -69 105 -81 158 -17 73 0 148 44 189 32 31
86 56 73 34 -13 -21 99 64 144 109 59 60 120 107 162 125 41 18 42 18 82 1z
m3476 -217 c0 -8 -89 -23 -96 -16 -3 2 7 19 22 36 l27 32 23 -22 c13 -12 24
-26 24 -30z m-15 -99 l1 -69 -76 -29 c-41 -17 -91 -33 -110 -37 -19 -4 -68
-20 -108 -36 -80 -32 -90 -33 -112 -19 -12 9 -9 15 20 39 21 18 40 47 50 76
15 46 18 49 90 77 41 17 113 38 160 48 47 10 85 19 85 19 0 1 0 -30 0 -69z
m-2584 -23 c-10 -9 -11 -8 -5 6 3 10 9 15 12 12 3 -3 0 -11 -7 -18z m46 1 c-3
-8 -6 -5 -6 6 -1 11 2 17 5 13 3 -3 4 -12 1 -19z m43 7 c0 -2 -6 -8 -13 -14
-10 -8 -14 -7 -14 2 0 8 6 14 14 14 7 0 13 -1 13 -2z m-73 -59 c134 -52 252
-70 483 -70 118 -1 225 4 270 12 92 16 255 60 293 79 33 17 33 19 8 -113 -73
-384 -34 -718 104 -882 44 -53 85 -65 173 -53 304 42 394 63 509 116 40 18 73
32 73 30 0 -31 -30 -125 -57 -180 -45 -91 -90 -151 -159 -214 -91 -84 -262
-188 -290 -177 -8 3 -14 -1 -14 -9 0 -20 37 -19 86 1 37 15 38 15 56 -8 42
-54 61 -186 37 -259 -35 -103 -160 -151 -399 -152 -148 -1 -224 14 -292 59
-47 30 -78 90 -77 146 2 79 8 88 78 113 62 23 111 58 99 70 -3 4 -23 -5 -45
-19 -63 -41 -111 -47 -450 -52 l-323 -6 -11 26 c-14 29 -32 36 -22 9 4 -10 18
-36 33 -58 38 -59 50 -91 50 -138 -1 -64 -30 -120 -76 -143 -70 -35 -334 -31
-467 7 -50 14 -113 71 -128 116 -19 58 -8 160 25 223 35 68 30 64 58 49 27
-15 151 -49 157 -44 2 2 -13 12 -33 21 -20 10 -36 22 -36 26 0 5 -4 7 -8 4 -5
-3 -20 6 -35 20 -15 14 -27 21 -27 17 0 -4 -4 -3 -8 3 -4 6 -41 26 -82 44
-133 60 -212 129 -298 263 -47 72 -82 147 -98 213 l-7 28 65 -36 c202 -111
299 -133 376 -84 59 37 136 122 163 177 12 27 28 49 36 49 7 0 13 9 13 20 0
28 60 262 71 276 13 16 21 318 12 427 -8 86 -7 98 7 93 8 -3 56 -21 107 -40z
m2321 -143 c3 -19 -1 -23 -23 -23 -14 0 -36 5 -47 11 -21 11 -21 12 3 25 34
19 63 13 67 -13z m-151 -4 c27 -6 56 -15 65 -20 10 -5 23 -9 30 -9 17 -1 58
-35 58 -49 0 -16 -68 -14 -158 5 -123 24 -118 21 -86 55 32 33 28 33 91 18z"/>
<path d="M1423 3725 c-36 -15 -40 -26 -19 -48 12 -11 24 -12 66 -3 36 7 59 7
79 -1 27 -10 28 -9 27 19 -1 16 -8 33 -16 38 -22 14 -100 11 -137 -5z"/>
<path d="M3085 3710 c-8 -16 -15 -31 -15 -35 0 -3 41 -5 90 -5 98 0 111 9 68
50 -16 15 -35 20 -75 20 -48 0 -54 -2 -68 -30z"/>
<path d="M1465 3596 c-41 -19 -72 -54 -90 -105 -55 -156 53 -349 175 -312 81
24 150 149 135 244 -22 140 -120 217 -220 173z m9 -92 c9 -8 16 -27 16 -41 0
-58 -71 -87 -90 -37 -24 62 32 121 74 78z m59 -269 c1 -5 -6 -11 -15 -13 -11
-2 -18 3 -18 13 0 17 30 18 33 0z"/>
<path d="M3066 3585 c-59 -31 -97 -108 -98 -198 -1 -137 83 -239 183 -222 105
18 165 141 133 275 -17 76 -43 114 -94 140 -47 24 -85 25 -124 5z m20 -93 c18
-12 26 -50 14 -72 -20 -37 -100 -19 -100 22 0 43 52 73 86 50z m74 -237 c0
-16 -35 -21 -44 -6 -8 12 4 21 26 21 10 0 18 -7 18 -15z"/>
<path d="M1725 2987 c-59 -50 -32 -177 39 -185 80 -10 102 130 29 188 -32 25
-36 25 -68 -3z"/>
<path d="M2702 2975 c-59 -75 -14 -204 61 -176 54 21 79 139 37 181 -28 28
-74 26 -98 -5z"/>
<path d="M1792 2519 c11 -111 125 -182 216 -135 60 32 120 123 106 161 -8 20
-42 29 -58 15 -8 -6 -17 -27 -21 -46 -14 -77 -96 -111 -143 -61 -12 13 -22 27
-22 33 0 5 -5 26 -11 47 -9 32 -14 37 -41 37 l-31 0 5 -51z"/>
<path d="M1485 2440 c6 -30 16 -40 12 -12 -2 12 -6 24 -10 28 -3 4 -4 -4 -2
-16z"/>
<path d="M1529 2408 c-7 -23 -5 -37 4 -31 6 4 8 0 4 -10 -4 -10 -2 -16 5 -14
7 1 12 -3 13 -10 0 -7 6 -18 13 -25 11 -11 13 -11 10 1 -2 7 2 15 8 18 7 2 10
-7 8 -24 -4 -28 -4 -28 5 -3 9 26 14 19 12 -16 -1 -11 5 -27 13 -34 9 -7 16
-9 16 -5 0 4 7 1 16 -6 9 -7 28 -13 43 -14 17 0 26 -5 26 -17 0 -9 4 -20 8
-24 4 -4 7 4 7 17 -1 32 -71 83 -90 66 -10 -9 -12 -8 -7 4 6 18 -48 78 -59 66
-8 -8 -34 11 -34 25 0 6 8 4 18 -3 15 -13 16 -12 4 3 -8 10 -19 16 -25 15 -7
-1 -11 4 -9 11 2 10 -6 19 -9 10z m106 -128 c1 -10 -2 -17 -7 -14 -4 3 -8 15
-8 26 0 26 13 15 15 -12z m49 -32 c-3 -5 -12 -4 -20 3 -7 6 -11 15 -8 21 3 5
12 4 20 -3 7 -6 11 -15 8 -21z"/>
<path d="M1777 2213 c-2 -4 -1 -17 3 -27 6 -19 7 -19 14 -1 7 19 -8 44 -17 28z"/>
<path d="M3950 2636 c-29 -36 38 -108 79 -86 24 12 29 61 8 79 -25 20 -72 24
-87 7z m74 -22 c20 -19 20 -28 2 -43 -17 -15 -68 23 -59 44 7 20 38 19 57 -1z"/>
<path d="M1415 1059 c-3 -4 2 -6 10 -5 21 3 28 13 10 13 -9 0 -18 -4 -20 -8z"/>
</g>
</svg>
